<?xml version="1.0" encoding="UTF-8" standalone="no"?>
<!-- Created with Inkscape (http://www.inkscape.org/) -->

<svg
   xmlns:dc="http://purl.org/dc/elements/1.1/"
   xmlns:cc="http://creativecommons.org/ns#"
   xmlns:rdf="http://www.w3.org/1999/02/22-rdf-syntax-ns#"
   xmlns:svg="http://www.w3.org/2000/svg"
   xmlns="http://www.w3.org/2000/svg"
   xmlns:sodipodi="http://sodipodi.sourceforge.net/DTD/sodipodi-0.dtd"
   xmlns:inkscape="http://www.inkscape.org/namespaces/inkscape"
   width="150mm"
   height="150mm"
   viewBox="0 0 531.49606 531.49606"
   id="svg2"
   version="1.1"
   inkscape:version="0.91 r13725"
   sodipodi:docname="icona_rev_mutual.svg">
  <defs
     id="defs4" />
  <sodipodi:namedview
     id="base"
     pagecolor="#ffffff"
     bordercolor="#666666"
     borderopacity="1.0"
     inkscape:pageopacity="0.0"
     inkscape:pageshadow="2"
     inkscape:zoom="0.35"
     inkscape:cx="-300.71429"
     inkscape:cy="520"
     inkscape:document-units="px"
     inkscape:current-layer="layer1"
     showgrid="false"
     borderlayer="true"
     inkscape:window-width="1920"
     inkscape:window-height="1075"
     inkscape:window-x="0"
     inkscape:window-y="1"
     inkscape:window-maximized="1" />
  <metadata
     id="metadata7">
    <rdf:RDF>
      <cc:Work
         rdf:about="">
        <dc:format>image/svg+xml</dc:format>
        <dc:type
           rdf:resource="http://purl.org/dc/dcmitype/StillImage" />
        <dc:title></dc:title>
      </cc:Work>
    </rdf:RDF>
  </metadata>
  <g
     inkscape:label="Capa 1"
     inkscape:groupmode="layer"
     id="layer1"
     transform="translate(0,-520.86614)">
    <rect
       style="opacity:1;fill:#063153;fill-opacity:1;fill-rule:nonzero;stroke:none;stroke-width:10;stroke-miterlimit:4;stroke-dasharray:none;stroke-dashoffset:0;stroke-opacity:1"
       id="rect4136"
       width="645.71429"
       height="628.57141"
       x="-54.285713"
       y="472.36218" />
    <path
       id="path4434"
       style="fill:#ffffff"
       d="m 352.48269,572.72222 c 0,-1.8082 0.19326,-2.5479 0.42954,-1.64382 0.23628,0.90409 0.23628,2.38352 0,3.28761 -0.23628,0.9041 -0.42954,0.16438 -0.42954,-1.64379 z M 289.4787,676.04728 c 0,-1.29156 0.21321,-1.81993 0.47378,-1.17415 0.26059,0.64577 0.26059,1.70251 0,2.3483 -0.26057,0.64577 -0.47378,0.11741 -0.47378,-1.17415 z m -15.17742,62.93435 c 0,-0.51662 0.44764,-0.9393 0.99473,-0.9393 0.54718,0 0.73356,0.42268 0.41422,0.9393 -0.31926,0.51663 -0.7669,0.93933 -0.99473,0.93933 -0.22785,0 -0.41422,-0.4227 -0.41422,-0.93933 z m -7.98425,93.93189 c 0.31934,-0.51662 0.76698,-0.93932 0.99481,-0.93932 0.22777,0 0.41421,0.4227 0.41421,0.93932 0,0.51663 -0.44764,0.93931 -0.99481,0.93931 -0.54709,0 -0.73346,-0.42268 -0.41421,-0.93931 z m -13.62007,15.61378 c 0,-0.19506 0.73968,-0.93477 1.64381,-1.64381 1.48981,-1.1684 1.52303,-1.13518 0.35465,0.35464 -1.22714,1.56468 -1.99846,2.06226 -1.99846,1.28917 z m 2.8179,0.41008 c 0,-0.48613 0.4179,-1.14214 0.92858,-1.45777 0.53245,-0.32908 0.68992,0.0479 0.36916,0.88389 -0.62443,1.62728 -1.29774,1.92502 -1.29774,0.57388 z m -48.84457,20.78002 c 0,-1.1352 1.78213,-2.45874 2.4335,-1.80734 0.23642,0.23642 -0.21435,0.96454 -1.00181,1.61805 -0.8927,0.74089 -1.43169,0.81216 -1.43169,0.18929 z m 20.66504,9.5689 c 0,-0.67066 0.84118,-1.66957 1.86928,-2.21979 1.02808,-0.55023 1.76782,-1.49905 1.64379,-2.10847 -0.12402,-0.60941 0.70917,-1.17233 1.85149,-1.25092 1.72577,-0.11873 1.92346,0.14392 1.16908,1.55344 -0.49931,0.93298 -1.33516,1.96043 -1.85742,2.2832 -0.52224,0.32277 -0.66601,1.04567 -0.31946,1.60643 0.37611,0.6085 0.19292,0.74934 -0.45438,0.3493 -0.59644,-0.36861 -1.08446,-0.29303 -1.08446,0.16799 0,0.461 -0.63402,0.83819 -1.40896,0.83819 -0.77492,0 -1.40896,-0.54871 -1.40896,-1.21937 z m -36.63347,4.93511 c 0,-0.19505 0.64376,-0.88888 1.43054,-1.54184 1.19602,-0.99265 1.33353,-0.93454 0.83879,0.35465 -0.50525,1.31668 -2.26933,2.23955 -2.26933,1.18719 z m -7.76498,9.63127 c 0.63716,-0.64194 1.39507,-0.93054 1.68431,-0.64134 0.28917,0.2892 -0.23213,0.81443 -1.15852,1.16717 -1.3387,0.50976 -1.4466,0.40186 -0.52579,-0.52583 z m 157.19086,3.32591 c 0.0449,-1.09427 0.26767,-1.31683 0.56752,-0.5675 0.27133,0.67805 0.23798,1.48823 -0.0741,1.80035 -0.31211,0.31213 -0.5341,-0.24266 -0.49332,-1.23285 z m -170.09087,8.17094 c 0,-0.84329 2.82255,-2.29562 3.37938,-1.73881 0.16086,0.16086 -0.53368,0.80844 -1.54346,1.43905 -1.00972,0.6306 -1.83592,0.76549 -1.83592,0.29976 z m 8.85367,3.93607 c 0.13689,-0.93293 0.56092,-1.62578 0.94218,-1.53968 1.42645,0.32214 1.48091,1.01829 0.16515,2.11031 -1.10298,0.91539 -1.30977,0.80881 -1.10733,-0.57063 z m -10.16588,8.32317 c -0.2661,-0.43053 0.11308,-0.78277 0.84259,-0.78277 0.72946,0 1.10862,0.35224 0.84253,0.78277 -0.2661,0.43051 -0.64525,0.78276 -0.84253,0.78276 -0.19734,0 -0.57651,-0.35225 -0.84259,-0.78276 z m 8.31698,4.60495 c 0.29727,-0.48094 0.1108,-1.13992 -0.41423,-1.46442 -1.75708,-1.08593 -0.97962,-2.10217 1.40774,-1.84011 1.2993,0.14263 3.01728,-0.39556 3.81769,-1.19596 0.85525,-0.85524 1.80153,-1.10902 2.29512,-0.61547 1.11698,1.117 0.13117,2.35758 -3.45385,4.34656 -3.30449,1.83332 -4.4605,2.07685 -3.65247,0.7694 z m -8.62189,2.68417 c -0.93318,-2.47234 -0.89705,-2.72699 0.25181,-1.77355 0.73777,0.6123 1.98082,0.86792 2.76237,0.56802 1.71644,-0.65867 4.23884,0.19249 4.23884,1.43034 0,0.49184 -0.37481,0.66261 -0.83287,0.37951 -0.45812,-0.28312 -1.35524,0.11463 -1.99362,0.88388 -1.79131,2.15839 -3.23302,1.67369 -4.42653,-1.4882 z m -32.64267,17.01764 c -0.3053,-0.49407 -1.17568,-0.66018 -1.93407,-0.36916 -2.71131,1.04041 -1.32183,-1.66519 1.4547,-2.83263 1.55852,-0.65529 2.50954,-1.54804 2.1135,-1.98388 -0.3961,-0.43585 -0.26153,-0.53151 0.29898,-0.21256 1.36335,0.77572 7.96701,-1.29613 7.34402,-2.30411 -0.26942,-0.43591 0.77828,-0.79256 2.32814,-0.79256 1.54986,0 3.05609,0.38531 3.34716,0.85624 0.6294,1.01845 -8.62643,6.92109 -9.75711,6.2223 -0.42946,-0.26544 -1.30323,0.14678 -1.94163,0.91603 -1.33753,1.61162 -2.46018,1.78425 -3.25369,0.50033 z m 223.13707,6.92559 c 0.0449,-1.09426 0.26766,-1.31682 0.5675,-0.5675 0.27135,0.67807 0.23792,1.48823 -0.0741,1.80036 -0.31217,0.31212 -0.53415,-0.24266 -0.49338,-1.23286 z m 7.03109,15.85238 c -0.50972,-1.33872 -0.40182,-1.44661 0.52587,-0.52583 0.6419,0.63717 0.93053,1.39512 0.64129,1.68433 -0.28917,0.2892 -0.8144,-0.23213 -1.16716,-1.1585 z m 14.49909,6.24445 c 0,-1.06373 0.4042,-1.68425 0.89828,-1.37889 0.49407,0.30535 0.66016,1.17569 0.36916,1.93408 -0.74512,1.94166 -1.26744,1.71286 -1.26744,-0.55519 z M 226.39601,847.99806 c 0,-0.48614 0.41784,-1.14213 0.92857,-1.45776 0.53246,-0.32908 0.68991,0.0479 0.36916,0.88387 -0.62443,1.62731 -1.29773,1.92503 -1.29773,0.57389 z m 2.4455,-1.24717 c 1.10167,-3.18214 1.0692,-3.36928 -0.42342,-2.43714 -0.88922,0.55533 -2.52902,2.40132 -3.64396,4.10222 l -2.0272,3.09252 2.45067,-0.6554 c 1.71657,-0.4591 2.80805,-1.68782 3.64391,-4.1022 z m -34.85864,45.35047 c 0.32906,-0.53246 -0.0483,-0.68992 -0.88391,-0.36917 -1.62727,0.62446 -1.92501,1.29773 -0.57386,1.29773 0.48611,0 1.14213,-0.41786 1.45777,-0.92856 z m 156.98412,24.83241 c -0.32075,-0.83592 -0.16329,-1.21296 0.36916,-0.88388 1.78193,1.1013 0.85724,-0.97066 -1.88941,-4.23359 -1.52209,-1.80819 -2.77876,-2.76781 -2.79266,-2.13248 -0.0449,2.04527 2.96564,8.70771 3.93451,8.70771 0.51577,0 0.68609,-0.65598 0.3784,-1.45776 z m 0.0606,3.16028 c -0.29986,-0.74932 -0.52245,-0.52675 -0.56752,0.56751 -0.0408,0.99018 0.18121,1.54497 0.49332,1.23285 0.31218,-0.31212 0.34553,-1.12229 0.0741,-1.80036 z m 24.42231,48.84458 c -0.29987,-0.74932 -0.52247,-0.52675 -0.56753,0.56751 -0.0408,0.99019 0.18121,1.54498 0.49333,1.23286 0.3121,-0.31213 0.34552,-1.1223 0.0741,-1.80037 z m 1.23693,4.45848 c 0,-0.22782 -0.42266,-0.67545 -0.93933,-0.99474 -0.5166,-0.3193 -0.93933,-0.13289 -0.93933,0.41421 0,0.54712 0.42273,0.99476 0.93933,0.99476 0.51667,0 0.93933,-0.18639 0.93933,-0.41423 z m -1.58322,5.39272 c 0.79222,-1.28175 -5.38737,-12.70482 -6.38354,-11.80007 -0.43355,0.39381 -0.48535,0.18948 -0.11511,-0.45406 0.38447,-0.66835 -0.73122,-3.28643 -2.60198,-6.10557 -4.34525,-6.54806 -5.23556,-9.12982 -4.65376,-13.49562 0.41205,-3.09184 0.0279,-4.22649 -2.50919,-7.4083 -4.22333,-5.2968 -5.00331,-6.95284 -3.9004,-8.28175 0.62476,-0.75275 0.49291,-1.71024 -0.40449,-2.93744 -1.24258,-1.6994 -1.33129,-1.7072 -1.33129,-0.11715 0,1.40774 -0.24464,1.50049 -1.40894,0.53418 -0.77494,-0.64316 -1.43871,-1.85732 -1.47506,-2.69814 -0.0517,-1.19691 -0.25976,-1.12095 -0.95859,0.34984 -0.80325,1.69076 -0.8492,1.65475 -0.45881,-0.36003 0.23852,-1.23128 -0.61007,-5.01174 -1.88573,-8.40103 -1.27575,-3.3893 -2.94808,-10.34702 -3.71626,-15.4616 -1.50161,-9.99772 -5.66741,-20.54494 -7.23021,-18.30587 -0.5505,0.7887 -0.64396,0.50969 -0.27345,-0.816 0.33499,-1.19836 0,-2.58011 -0.83307,-3.41061 -0.76785,-0.76787 -1.15648,-1.63574 -0.86363,-1.9286 0.29285,-0.29285 -0.36133,-2.37876 -1.45374,-4.63531 -1.09235,-2.25658 -1.98614,-4.75077 -1.98614,-5.54267 0,-1.86311 -4.30434,-21.46427 -6.05113,-27.55563 -0.74069,-2.58311 -2.70213,-10.40294 -4.3586,-17.37739 -1.65646,-6.97444 -3.61979,-13.88973 -4.3628,-15.36731 -0.74307,-1.47757 -0.93287,-2.42803 -0.42164,-2.11212 0.92714,0.57303 0.81863,-0.0289 -1.76021,-9.7608 -0.61598,-2.32482 -1.26008,-5.28368 -1.43127,-6.57524 -0.17121,-1.29157 -0.75411,-5.38812 -1.29536,-9.10346 -0.54118,-3.71535 -0.98406,-8.44569 -0.98406,-10.51191 0,-2.0662 -0.43443,-4.02526 -0.96546,-4.35344 -0.55513,-0.34312 -0.75348,-2.36267 -0.4667,-4.75202 0.2744,-2.28544 0.34281,-4.15533 0.15208,-4.15533 -0.29394,0 -4.56588,10.82605 -4.81855,12.21114 -0.047,0.25831 -0.79876,1.80529 -1.67043,3.43775 -0.87159,1.63242 -2.46087,5.1908 -3.53165,7.90746 -1.07084,2.71667 -2.77046,6.0959 -3.77698,7.50943 -2.0634,2.89778 -2.35569,4.12478 -0.74551,3.12966 0.67724,-0.41859 0.82918,-0.25731 0.40468,0.42954 -0.37378,0.60487 -1.00351,0.89964 -1.3993,0.65503 -0.57446,-0.35504 -3.875,5.01931 -4.29235,6.98934 -0.12599,0.59467 -8.19275,13.26047 -11.83283,18.579 -1.51311,2.21077 -2.75107,4.39468 -2.75107,4.85315 0,0.45846 -0.37596,0.97448 -0.83544,1.14668 -0.4595,0.17222 -2.84351,2.78775 -5.29778,5.8123 -3.58549,4.41859 -4.20577,5.68189 -3.15664,6.42902 1.04878,0.74689 1.00543,0.83468 -0.22042,0.44621 -1.76131,-0.55815 -8.79506,6.11021 -7.65137,7.2539 0.39794,0.39798 0.30088,0.62944 -0.21573,0.51439 -0.51666,-0.11508 -5.13311,3.86529 -10.25886,8.84524 -5.1257,4.97996 -9.80157,9.05446 -10.39067,9.05446 -0.58916,0 -2.07539,1.37376 -3.30279,3.0528 -1.22734,1.67902 -3.02601,3.625 -3.99699,4.32438 -0.97098,0.69939 -1.55239,1.82682 -1.292,2.5054 0.26036,0.67858 -0.1124,1.45859 -0.82837,1.73334 -0.9038,0.3468 -1.12858,0.0116 -0.73512,-1.09642 0.37352,-1.0519 -0.3808,-0.71537 -2.21267,0.98716 -1.52871,1.42072 -3.19054,2.58312 -3.69306,2.58312 -0.50244,0 -1.99239,1.16242 -3.31102,2.58314 -1.31863,1.42072 -3.73458,3.57938 -5.36878,4.79704 -1.63421,1.21766 -2.69763,2.65669 -2.3632,3.1979 0.35227,0.56995 0.15684,0.70508 -0.46445,0.32112 -0.58992,-0.3646 -1.60629,-0.21351 -2.25856,0.33573 -1.78901,1.5064 -7.80114,5.98995 -9.77563,7.29023 -1.65259,1.08827 -1.64558,1.11702 0.13573,0.55482 1.03327,-0.3261 1.60037,-0.2825 1.26022,0.0969 -0.59787,0.66687 -2.82642,1.26779 -5.25231,1.41628 -0.6458,0.0396 -1.17417,0.53498 -1.17417,1.10101 0,2.35248 -3.95159,6.48541 -6.20083,6.48541 -2.27278,0 -7.2072,4.22231 -9.39619,8.04018 -0.84015,1.46531 -1.30024,1.59174 -2.41765,0.66438 -1.50603,-1.24991 -3.58965,0.0184 -3.58965,2.18497 0,0.61635 -0.67793,1.38075 -1.50643,1.69869 -0.82857,0.31794 -1.29936,1.11766 -1.04634,1.77714 0.5718,1.49003 -6.80381,4.69067 -9.81266,4.25818 -2.08511,-0.29971 -2.07272,-0.34721 0.53444,-2.04806 1.67546,-1.093 2.40376,-1.26785 1.95646,-0.46967 -0.39196,0.69938 2.91607,-2.29067 7.35124,-6.64452 4.43524,-4.35387 7.80875,-8.3291 7.49677,-8.83384 -0.32926,-0.53283 -0.0768,-0.61465 0.60211,-0.19508 1.22455,0.7568 8.77714,-5.82225 8.04455,-7.00761 -0.21551,-0.34871 1.28139,-2.26791 3.32648,-4.26491 2.04516,-1.99701 3.71836,-3.94859 3.71836,-4.33688 0,-0.38829 0.95111,-1.70081 2.11351,-2.9167 3.07938,-3.22102 4.97642,-6.33687 4.61828,-7.58534 -0.17215,-0.60033 -0.0401,-0.81886 0.29285,-0.48561 0.33321,0.33325 1.69827,-0.40645 3.03336,-1.64381 1.33516,-1.23735 2.9998,-2.24971 3.69931,-2.24971 0.69951,0 1.2718,-0.32246 1.2718,-0.71658 0,-0.39412 0.9511,-1.13472 2.11349,-1.64576 1.31237,-0.57698 2.08709,-1.71185 2.04394,-2.994 -0.038,-1.13564 0.26595,-1.85744 0.67602,-1.60399 0.41014,0.25346 1.39017,-1.08174 2.17791,-2.96712 0.9562,-2.28845 1.87953,-3.25631 2.77774,-2.91165 1.49731,0.57459 4.00387,-1.86065 2.97448,-2.89 -0.35996,-0.36001 -1.00141,-0.0933 -1.42536,0.59266 -0.54846,0.88733 -0.959,0.94281 -1.42285,0.19229 -0.3586,-0.5802 -1.0406,-0.81472 -1.51562,-0.52114 -0.47501,0.29356 -0.59834,-0.15768 -0.27406,-1.00277 0.4324,-1.12668 0.7784,-1.23113 1.29725,-0.39154 0.81952,1.32596 3.34125,-2.55414 2.94072,-4.52478 -0.13294,-0.65396 0.30679,-1.07664 0.97711,-0.93931 0.6703,0.13733 1.11304,-0.27868 0.98384,-0.92446 -0.12913,-0.64578 0.21286,-1.17414 0.75997,-1.17414 0.54708,0 0.69316,-0.48802 0.32449,-1.08445 -0.39018,-0.63139 -0.26003,-0.83097 0.3115,-0.47772 0.53994,0.33369 1.72161,-0.55206 2.62595,-1.96835 0.90434,-1.41628 4.52734,-5.32257 8.05102,-8.68063 4.60133,-4.38509 7.10421,-7.69371 8.88191,-11.74148 1.36137,-3.09976 3.11266,-7.0613 3.89175,-8.80341 1.09561,-2.4499 1.18145,-3.68356 0.37875,-5.44529 -1.44048,-3.16152 -1.24082,-4.08488 0.287,-1.32726 l 1.25831,2.27112 1.10011,-2.0557 c 0.60516,-1.13062 0.83791,-2.48012 0.51727,-2.99886 -0.32061,-0.51875 -0.10933,-0.82704 0.46936,-0.68508 1.2927,0.31706 8.73257,-13.1337 7.95783,-14.38717 -0.30591,-0.49502 0.007,-0.78389 0.68774,-0.64193 0.74846,0.15528 1.21625,-0.56522 1.17439,-1.80866 -0.0381,-1.13672 0.27882,-1.8515 0.70454,-1.58838 0.42572,0.26311 0.77404,0.3418 0.77404,0.17486 0,-0.16693 0.79604,-2.48146 1.76906,-5.14341 1.32734,-3.63161 1.50323,-5.12844 0.70448,-5.99573 -0.81577,-0.88567 -0.70454,-1.02993 0.47561,-0.61717 1.26915,0.44387 2.3824,-2.03151 6.32575,-14.06498 2.632,-8.03199 4.55585,-14.97528 4.27513,-15.42952 -0.28081,-0.45424 -0.14431,-0.82587 0.30326,-0.82587 0.70985,0 4.41461,-12.02241 4.48642,-14.55944 0.015,-0.51663 0.31633,-1.40116 0.67039,-1.96562 0.35403,-0.56446 1.94624,-5.84813 3.53818,-11.7415 1.59193,-5.89334 3.72156,-12.95017 4.7325,-15.68184 1.01094,-2.73165 1.83809,-5.79618 1.83809,-6.81004 0,-1.01388 0.3716,-1.84342 0.82585,-1.84342 0.70046,0 2.8985,-10.59542 3.11784,-15.0291 0.038,-0.77494 0.41545,-1.85174 0.83811,-2.39289 1.53822,-1.96965 2.5062,-12.4064 2.64737,-28.54424 0.18666,-21.33365 1.61012,-40.28236 3.42839,-45.63808 0.79257,-2.33431 1.17853,-4.66881 0.85778,-5.18779 -0.32076,-0.51898 -0.0232,-0.82746 0.66084,-0.6855 0.68412,0.14196 1.13823,-0.27027 1.0091,-0.91605 -0.12913,-0.64577 0.18257,-1.17414 0.69271,-1.17414 0.51013,0 2.02371,-1.73645 3.36351,-3.85877 2.68796,-4.25803 2.76624,-8.57205 0.24294,-13.38789 -1.03734,-1.97995 -1.21753,-3.92879 -0.69412,-7.50796 0.38876,-2.65866 0.9628,-7.12232 1.2756,-9.91927 0.31278,-2.79693 1.37948,-6.91819 2.37041,-9.15835 0.99093,-2.24017 1.5084,-4.07949 1.15001,-4.08741 -0.3584,-0.008 -0.2192,-0.32493 0.30939,-0.70448 0.5285,-0.37956 1.71302,-1.87138 2.63221,-3.31517 2.27237,-3.56927 5.38163,-4.5672 14.40793,-4.62427 8.5809,-0.0542 13.14138,1.8495 15.18737,6.33991 0.66056,1.44991 1.53883,2.15593 2.18504,1.75658 0.6279,-0.38808 0.82613,-0.25632 0.4733,0.3146 -0.33389,0.5403 0.26262,2.94864 1.32571,5.35187 1.60596,3.63049 1.89451,5.99108 1.70635,13.95704 -0.2575,10.8984 -2.00961,21.52127 -4.06785,24.66255 -0.76819,1.17234 -2.40103,3.21522 -3.62851,4.53976 -2.16421,2.33521 -2.2551,3.07116 -2.99647,24.27288 -0.42054,12.02557 -0.9643,23.97813 -1.20834,26.56126 -1.00318,10.61619 -0.18135,37.71572 1.69492,55.88945 1.09339,10.59083 2.0086,20.31278 2.03387,21.60434 0.18291,9.35942 3.93183,52.61919 6.02383,69.5096 0.73579,5.94119 1.49683,12.33714 1.69111,14.21324 0.80462,7.7688 1.70507,13.7137 2.6135,17.25394 0.53021,2.06651 1.12183,5.2367 1.31461,7.04489 0.38127,3.57509 2.06442,13.14899 2.97257,16.90774 0.31204,1.29157 0.68562,3.40503 0.8302,4.69659 0.14459,1.29157 0.55057,3.40504 0.90223,4.69659 0.3516,1.29157 0.8004,3.61638 0.99733,5.16627 0.36338,2.85983 0.96573,6.44374 3.63103,21.60433 0.81741,4.64963 2.1035,12.46944 2.85794,17.3774 0.75445,4.90794 1.84835,10.10497 2.43092,11.54898 0.74376,1.84356 0.77003,3.26018 0.0882,4.75673 -0.67127,1.47322 -0.66691,2.67483 0.0136,3.8916 1.04252,1.86288 3.46078,13.09733 3.84124,17.84509 0.13752,1.71544 0.69624,2.71686 1.42808,2.55954 0.76867,-0.16523 1.0089,0.35067 0.66622,1.43044 -0.55812,1.75846 0.73838,8.53376 4.10182,21.43532 1.81698,6.96953 1.86178,7.85089 0.55739,10.97276 -0.78011,1.867 -1.91277,3.70009 -2.51704,4.07356 -0.6292,0.38886 -0.84838,0.27406 -0.513,-0.26867 z m 13.54389,8.05542 c 0.63715,-0.64195 1.39513,-0.93055 1.6843,-0.64135 0.28924,0.28921 -0.23211,0.81444 -1.15852,1.16718 -1.33869,0.50975 -1.44659,0.40186 -0.52578,-0.52583 z m -5.35686,8.9202 c -0.0157,-0.5825 0.54574,-1.5357 1.24769,-2.1183 0.77929,-0.6468 1.20929,-2.6671 1.10426,-5.18848 -0.12975,-3.11586 0.13737,-4.01054 1.08868,-3.64549 0.69339,0.26605 1.20311,0.96402 1.13272,1.55102 -0.27726,2.31322 0.13894,3.4991 1.03401,2.94595 1.0588,-0.65439 1.21904,0.52638 0.3712,2.7357 -0.31245,0.8142 -0.94647,1.2465 -1.40895,0.9607 -0.46249,-0.2859 -0.84089,-0.047 -0.84089,0.5305 0,0.5776 -0.39674,0.8051 -0.88161,0.5054 -0.48487,-0.2997 -1.3174,0.2037 -1.85007,1.1186 -0.53266,0.915 -0.98132,1.187 -0.99704,0.6044 z m 2.78939,1.5843 c 0,-0.4861 0.41781,-1.1422 0.92856,-1.4578 0.53247,-0.3291 0.68992,0.048 0.36916,0.8839 -0.62442,1.6273 -1.29772,1.92503 -1.29772,0.5739 z m -12.21119,0.8838 c 0,-0.5165 0.44764,-0.9393 0.99481,-0.9393 0.54709,0 0.73348,0.4228 0.41422,0.9393 -0.31932,0.51673 -0.76696,0.93943 -0.99474,0.93943 -0.22783,0 -0.41429,-0.4227 -0.41429,-0.93943 z m 15.02916,0.52523 c 0,-3.42533 1.55981,-3.73053 2.67755,-0.52403 0.87207,2.50165 0.77718,2.81695 -0.84777,2.81695 -1.31378,0 -1.82978,-0.6466 -1.82978,-2.29292 z m -8.90287,8.83462 c 0.34648,-0.5606 0.11524,-2.2618 -0.51381,-3.7805 -1.05273,-2.5416 -1.9926,-3.2046 -4.03843,-2.8492 -0.42587,0.074 -0.50239,-0.3056 -0.16992,-0.8434 0.3324,-0.53792 1.04,-0.70872 1.57246,-0.37962 1.20712,0.74602 -0.94265,-3.36463 -2.65522,-5.07723 -0.69338,-0.6933 -1.26063,-1.8192 -1.26063,-2.5019 0,-0.6829 -0.63409,-1.4848 -1.40902,-1.7822 -0.77493,-0.2973 -1.40895,-1.58567 -1.40895,-2.86296 0,-1.2773 -0.39019,-2.56348 -0.86703,-2.85822 -0.47692,-0.29473 -1.16254,-1.90476 -1.52367,-3.57787 -0.36105,-1.67311 -1.45892,-4.62712 -2.43964,-6.56446 -0.9807,-1.93735 -1.60765,-3.52245 -1.39322,-3.52245 0.21436,0 0.0585,-1.46924 -0.34655,-3.265 -0.66855,-2.96409 -0.57958,-3.18104 0.96539,-2.35423 0.93592,0.50092 2.52378,1.95582 3.52851,3.23314 1.00474,1.27731 2.03898,2.1102 2.29832,1.85085 0.25936,-0.25937 0.89808,1.20892 1.41945,3.26281 0.75029,2.95601 0.67921,3.83746 -0.34112,4.229 -0.99201,0.38065 -0.64096,1.59376 1.52319,5.26424 1.54673,2.62327 2.81226,5.19863 2.81226,5.72302 0,0.5244 0.52838,0.68576 1.17418,0.35866 0.6458,-0.32709 0.44477,0 -0.44669,0.73577 -1.47179,1.2083 -1.48697,1.4954 -0.16514,3.1225 0.80059,0.9855 1.14762,1.1982 0.77119,0.4726 -0.45391,-0.8749 -0.31403,-1.0903 0.4153,-0.6396 0.60489,0.3739 0.88616,1.0253 0.62511,1.4477 -0.261,0.4224 0.18263,1.3134 0.98595,1.9801 3.61518,3.00033 4.65722,11.28495 1.50174,11.93965 -0.68951,0.143 -0.96322,-0.1962 -0.61401,-0.7612 z m 18.3702,12.636 c 0.0449,-1.0942 0.26767,-1.3168 0.56753,-0.5674 0.27133,0.6779 0.23798,1.4882 -0.0741,1.8003 -0.31212,0.3121 -0.53418,-0.2427 -0.49341,-1.2329 z m -3.27242,13.4937 c -0.82408,-1.9207 -1.49834,-4.9642 -1.49834,-6.7633 0,-2.1041 -0.57057,-3.5905 -1.59942,-4.1662 -1.3487,-0.7548 -1.40433,-1.1303 -0.35465,-2.395 1.88424,-2.2703 2.84228,-1.8405 4.50895,2.0225 1.75967,4.0789 2.3163,9.977 1.20985,12.8205 -0.70134,1.8023 -0.89828,1.6703 -2.26639,-1.5185 z"
       inkscape:connector-curvature="0" />
  </g>
</svg>
